#!OML:ASF H:\Terrain\Patient Classification 1\Animal1\Tuesday\Animal1.ASF
:FULLY-SPECIFIED
:DEGREES
3996
root 10.8877 16.1619 -24.8438 -350.398 -3.98147 1.28193
lowerback -5.33537 -1.40832 0.25787
upperback -7.30014 -1.89565 0.160932
thorax -4.56708 -0.963848 -0.000573108
lowerneck -9.37908 -2.36986 -7.73957
upperneck 9.57015 -3.19243 9.39866
head 4.67543 -1.29997 3.97242
rclavicle -5.51627e-015 -7.95139e-016
rhumerus -39.2698 -14.8611 -67.6981
rradius 33.2018
rwrist -53.1845
rhand -9.19252 13.4439
rfingers 7.12502
rthumb 16.7611 -15.8526
lclavicle -5.51627e-015 -7.95139e-016
lhumerus -45.6468 26.1656 66.4719
lradius 37.3819
lwrist 1.13958
lhand 7.20184 46.3454
lfingers 7.12502
lthumb 32.4678 73.4564
rfemur -20.0154 43.5689 11.259
rtibia 21.603
rfoot -34.361 -43.7405
rtoes 38.8498
lfemur -9.00761 -42.4218 -13.6897
ltibia 12.6393
lfoot -31.8379 41.8558
ltoes 29.1118
3997
root 10.8879 16.1606 -24.8447 -350.424 -4.03953 1.2249
lowerback -5.30559 -1.38849 0.295604
upperback -7.25959 -1.86937 0.175427
thorax -4.54149 -0.952036 -0.00624104
lowerneck -9.3475 -2.39498 -7.69031
upperneck 9.48527 -3.22065 9.31945
head 4.64471 -1.318 3.93656
rclavicle -1.2424e-015 1.74931e-014
rhumerus -39.2346 -14.8954 -67.7299
rradius 33.017
rwrist -52.5098
rhand -9.38398 13.2524
rfingers 7.12502
rthumb 16.5768 -16.0596
lclavicle -1.2424e-015 1.74931e-014
lhumerus -45.5677 25.8473 66.7401
lradius 37.599
lwrist 0.864904
lhand 7.31069 47.1312
lfingers 7.12502
lthumb 32.5714 74.2208
rfemur -20.0155 43.9241 11.2526
rtibia 21.5548
rfoot -34.732 -44.0091
rtoes 39.1741
lfemur -8.98821 -42.2792 -13.6939
ltibia 12.7447
lfoot -31.7492 41.8706
ltoes 28.8923
3998
root 10.8888 16.1576 -24.8442 -350.493 -4.16658 1.25562
lowerback -5.22943 -1.36484 0.255344
upperback -7.22685 -1.83742 0.160427
thorax -4.54864 -0.934431 0.00260073
lowerneck -9.30223 -2.3805 -7.63494
upperneck 9.40711 -3.19731 9.24007
head 4.60904 -1.31077 3.90356
rclavicle -1.00635e-014 6.75868e-015
rhumerus -39.1661 -14.8979 -67.7969
rradius 32.7033
rwrist -51.564
rhand -9.59688 13.0627
rfingers 7.12502
rthumb 16.3718 -16.2663
lclavicle -1.00635e-014 6.75868e-015
lhumerus -45.5531 25.6676 66.837
lradius 37.5985
lwrist 0.317652
lhand 7.24569 47.425
lfingers 7.12502
lthumb 32.5095 74.5274
rfemur -19.9089 44.1352 11.2354
rtibia 21.4726
rfoot -34.5516 -44.2428
rtoes 38.4565
lfemur -8.91172 -42.323 -13.8521
ltibia 12.9186
lfoot -32.1902 41.8112
ltoes 29.4991
3999
root 10.8901 16.1552 -24.8439 -350.546 -4.28195 1.302
lowerback -5.18036 -1.36134 0.217621
upperback -7.1992 -1.83279 0.139355
thorax -4.54641 -0.930866 0.00277765
lowerneck -9.17708 -2.34866 -7.65202
upperneck 9.25954 -3.15503 9.28185
head 4.5402 -1.29233 3.92223
rclavicle 8.3738e-015 2.98177e-015
rhumerus -39.0594 -14.7041 -67.9776
rradius 32.3411
rwrist -50.475
rhand -10.132 13.6615
rfingers 7.12502
rthumb 15.8565 -15.7092
lclavicle 8.3738e-015 2.98177e-015
lhumerus -45.5771 25.6313 66.7919
lradius 37.4223
lwrist -0.623811
lhand 7.39853 48.2959
lfingers 7.12502
lthumb 32.655 75.3683
rfemur -19.7783 43.9849 11.2611
rtibia 21.3945
rfoot -34.265 -44.0811
rtoes 37.966
lfemur -8.87905 -42.553 -13.9812
ltibia 13.085
lfoot -32.9404 41.7489
ltoes 30.5542
4000
root 10.892 16.1573 -24.8447 -350.542 -4.30737 1.20477
lowerback -5.29135 -1.36409 0.383038
upperback -7.10472 -1.84034 0.125791
thorax -4.3901 -0.94293 -0.108318
lowerneck -9.1401 -2.34456 -7.71967
upperneck 9.17421 -3.15477 9.43679
head 4.51151 -1.28736 3.98209
rclavicle -2.33572e-014 -1.35174e-014
rhumerus -38.9079 -14.4901 -68.2621
rradius 32.0697
rwrist -48.9893
rhand -10.8045 14.4069
rfingers 7.12502
rthumb 15.2088 -15.0141
lclavicle -2.33572e-014 -1.35174e-014
lhumerus -45.5026 25.6417 66.7181
lradius 37.2759
lwrist -2.03382
lhand 8.14763 49.3312
lfingers 7.12502
lthumb 33.3674 76.2531
rfemur -19.7365 43.8456 11.3845
rtibia 21.3436
rfoot -34.0503 -44.006
rtoes 37.3594
lfemur -8.9231 -42.7449 -13.8762
ltibia 13.179
lfoot -32.7319 42.1627
ltoes 29.8043
4001
root 10.8932 16.158 -24.8465 -350.48 -4.35166 1.06857
lowerback -5.43627 -1.3501 0.581536
upperback -7.02848 -1.82703 0.115523
thorax -4.23516 -0.945713 -0.234782
lowerneck -9.07914 -2.34581 -7.70939
upperneck 9.06941 -3.16096 9.48992
head 4.47066 -1.28937 3.99628
rclavicle -2.90226e-014 3.57812e-015
rhumerus -38.7987 -14.2567 -68.5709
rradius 31.9003
rwrist -47.0551
rhand -11.2672 14.0952
rfingers 7.12502
rthumb 14.7631 -15.3591
lclavicle -2.90226e-014 3.57812e-015
lhumerus -45.4443 25.5106 66.6986
lradius 37.2854
lwrist -3.69351
lhand 7.59644 48.5692
lfingers 7.12502
lthumb 32.8432 75.6024
rfemur -19.826 43.8847 11.4483
rtibia 21.3012
rfoot -33.5516 -44.2858
rtoes 36.435
lfemur -9.0101 -42.6431 -13.7113
ltibia 13.2455
lfoot -32.0266 42.5679
ltoes 28.1377
4002
root 10.8951 16.1552 -24.8489 -350.388 -4.49287 0.999787
lowerback -5.4729 -1.31115 0.678221
upperback -7.056 -1.77791 0.112875
thorax -4.24644 -0.926019 -0.291202
lowerneck -8.9529 -2.35432 -7.68919
upperneck 8.96506 -3.17569 9.48326
head 4.41861 -1.30025 3.98967
rclavicle -2.49475e-014 -5.36719e-015
rhumerus -38.7638 -13.9142 -68.8292
rradius 31.6366
rwrist -45.0014
rhand -11.5221 13.8825
rfingers 7.12502
rthumb 14.5175 -15.5896
lclavicle -2.49475e-014 -5.36719e-015
lhumerus -45.5324 25.2476 66.7639
lradius 37.3143
lwrist -5.23092
lhand 5.41539 46.3143
lfingers 7.12502
lthumb 30.7661 73.76
rfemur -19.9763 43.8197 11.402
rtibia 21.2443
rfoot -32.5494 -44.6208
rtoes 35.7041
lfemur -9.13471 -42.4063 -13.6238
ltibia 13.3395
lfoot -32.2824 42.3726
ltoes 28.4192
4003
root 10.8968 16.1557 -24.8489 -350.382 -4.61482 1.05979
lowerback -5.43811 -1.29974 0.602929
upperback -7.07875 -1.76091 0.115096
thorax -4.28724 -0.91414 -0.245308
lowerneck -8.93725 -2.3734 -7.74941
upperneck 8.9978 -3.19977 9.51113
head 4.42944 -1.31279 4.00712
rclavicle 2.18663e-015 -2.18663e-015
rhumerus -38.7069 -13.4584 -69.072
rradius 31.2174
rwrist -42.661
rhand -11.7584 14.8118
rfingers 7.12502
rthumb 14.2898 -14.6765
lclavicle 2.18663e-015 -2.18663e-015
lhumerus -45.5829 24.7744 67.157
lradius 37.3143
lwrist -6.23633
lhand 4.5776 46.5644
lfingers 7.12502
lthumb 29.967 74.1576
rfemur -20.0085 43.7396 11.3134
rtibia 21.2325
rfoot -31.97 -44.7034
rtoes 35.5099
lfemur -9.14123 -42.4163 -13.7132
ltibia 13.3699
lfoot -32.7871 42.2432
ltoes 29.4156
4004
root 10.8968 16.1583 -24.8483 -350.355 -4.64158 1.08314
lowerback -5.49964 -1.31243 0.561456
upperback -7.04943 -1.77703 0.124308
thorax -4.22034 -0.919882 -0.215006
lowerneck -8.91587 -2.38276 -7.80075
upperneck 8.94245 -3.20409 9.51847
head 4.41034 -1.31721 4.01742
rclavicle -1.75924e-014 1.76918e-014
rhumerus -38.5568 -12.9799 -69.4065
rradius 30.778
rwrist -39.4654
rhand -11.9932 15.9058
rfingers 7.12502
rthumb 14.0635 -13.5984
lclavicle -1.75924e-014 1.76918e-014
lhumerus -45.4804 24.2498 67.6577
lradius 37.1132
lwrist -7.16975
lhand 5.43555 48.8426
lfingers 7.12502
lthumb 30.7853 76.2847
rfemur -20.1234 43.9363 11.2024
rtibia 21.304
rfoot -32.533 -44.5746
rtoes 35.9327
lfemur -9.1429 -42.5811 -13.6947
ltibia 13.265
lfoot -32.8647 42.3815
ltoes 29.6111
4005
root 10.8969 16.1566 -24.8487 -350.323 -4.68398 1.10761
lowerback -5.60922 -1.3028 0.547941
upperback -6.99364 -1.76529 0.0956357
thorax -4.10055 -0.91389 -0.240671
lowerneck -8.85079 -2.3953 -7.81032
upperneck 8.8728 -3.2183 9.50842
head 4.37952 -1.32721 4.01471
rclavicle 1.4387e-014 7.95139e-016
rhumerus -38.4103 -12.5524 -69.7747
rradius 30.3857
rwrist -35.6829
rhand -12.1429 16.6154
rfingers 7.12502
rthumb 13.9193 -12.8987
lclavicle 1.4387e-014 7.95139e-016
lhumerus -45.379 24.0918 67.7376
lradius 36.6573
lwrist -9.14108
lhand 7.91566 51.8555
lfingers 7.12502
lthumb 33.1468 78.8246
rfemur -20.2829 44.2991 11.0531
rtibia 21.422
rfoot -32.9453 -44.7654
rtoes 35.6881
lfemur -9.08097 -42.6194 -13.7122
ltibia 13.0924
lfoot -32.9238 42.4002
ltoes 29.6765
